<svg height="512pt" viewBox="-47 0 512 512" width="512pt" xmlns="http://www.w3.org/2000/svg"><path d="m76.800781 8.535156c-37.546875 0-68.265625 30.71875-68.265625 68.265625v343.945313c.101563-.171875.152344-.351563.253906-.511719 1.347657-2.167969 3.277344-3.089844 5.25-3.246094 10.453126-24.351562 34.695313-41.523437 62.761719-41.523437h332.800781v-366.929688zm0 0" fill="#8e2600"/><path d="m76.800781 349.867188c-37.546875 0-68.265625 30.71875-68.265625 68.265624 0 37.546876 30.71875 68.265626 68.265625 68.265626h59.734375v-68.265626h51.199219v68.265626h221.867187v-136.53125zm0 0" fill="#f2ecbf"/><path d="m76.800781 384c-18.824219 0-34.132812 15.308594-34.132812 34.132812 0 18.824219 15.308593 34.132813 34.132812 34.132813h59.734375v-34.132813h51.199219v34.132813h221.867187v-68.265625zm0 0" fill="#ccbc60"/><path d="m68.265625 9.128906c-33.550781 4.242188-59.730469 33.015625-59.730469 67.671875v341.332031c0-34.652343 26.179688-63.488281 59.730469-67.730468zm0 0" fill="#6a1600"/><path d="m8.535156 135.339844v52.394531c0-34.65625 26.179688-63.429687 59.730469-67.671875v-52.394531c-33.550781 4.242187-59.730469 33.015625-59.730469 67.671875zm0 0" fill="#e9ae00"/><path d="m8.535156 272.46875v52.394531c0-34.652343 26.179688-63.425781 59.730469-67.667969v-52.394531c-33.550781 4.242188-59.730469 33.015625-59.730469 67.667969zm0 0" fill="#e9ae00"/><path d="m187.734375 503.464844-25.601563-25.597656-25.597656 25.597656v-93.863282h51.199219zm0 0" fill="#dd352e"/><path d="m324.265625 51.199219h-170.664063c0 23.585937-19.082031 42.667969-42.667968 42.667969v170.667968c23.585937 0 42.667968 19.078125 42.667968 42.664063h170.664063c0-23.585938 19.082031-42.664063 42.667969-42.664063v-170.667968c-23.585938 0-42.667969-19.082032-42.667969-42.667969zm0 0" fill="#fff"/><path d="m274.671875 221.867188c-35.347656 0-64-28.65625-64-64 0-18.484376 7.875-35.082032 20.402344-46.761719-1.117188-.050781-2.210938-.171875-3.335938-.171875-42.410156 0-76.800781 34.378906-76.800781 76.800781 0 42.417969 34.390625 76.800781 76.800781 76.800781 31.980469 0 59.375-19.558594 70.929688-47.363281-7.417969 3.003906-15.507813 4.695313-23.996094 4.695313zm0 0" fill="#00c282"/><g fill="#4d007e"><path d="m8.535156 426.667969c-4.710937 0-8.535156-3.824219-8.535156-8.535157v-341.332031c0-42.34375 34.457031-76.800781 76.800781-76.800781h332.800781c4.707032 0 8.53125 3.824219 8.53125 8.535156v341.332032c0 4.710937-3.824218 8.53125-8.53125 8.53125h-332.800781c-32.9375 0-59.734375 26.796874-59.734375 59.734374 0 4.710938-3.824218 8.535157-8.53125 8.535157zm68.265625-409.601563c-32.9375 0-59.734375 26.796875-59.734375 59.734375v293.109375c14.089844-17.414062 35.636719-28.578125 59.734375-28.578125h324.265625v-324.265625zm0 0"/><path d="m136.535156 426.667969h-59.734375c-4.710937 0-8.535156-3.824219-8.535156-8.535157 0-4.710937 3.824219-8.53125 8.535156-8.53125h59.734375c4.707032 0 8.53125 3.820313 8.53125 8.53125 0 4.710938-3.824218 8.535157-8.53125 8.535157zm0 0"/><path d="m238.933594 426.667969h-51.199219c-4.710937 0-8.535156-3.824219-8.535156-8.535157 0-4.710937 3.824219-8.53125 8.535156-8.53125h51.199219c4.710937 0 8.53125 3.820313 8.53125 8.53125 0 4.710938-3.820313 8.535157-8.53125 8.535157zm0 0"/><path d="m409.601562 426.667969h-42.667968c-4.710938 0-8.535156-3.824219-8.535156-8.535157 0-4.710937 3.824218-8.53125 8.535156-8.53125h42.667968c4.707032 0 8.53125 3.820313 8.53125 8.53125 0 4.710938-3.824218 8.535157-8.53125 8.535157zm0 0"/><path d="m8.535156 426.667969c-4.710937 0-8.535156-3.824219-8.535156-8.535157v-341.332031c0-38.5625 28.886719-71.289062 67.199219-76.136719 2.449219-.3125 4.875.445313 6.707031 2.066407 1.835938 1.613281 2.894531 3.949219 2.894531 6.398437v341.335938c0 4.300781-3.199219 7.925781-7.46875 8.464844-29.796875 3.761718-52.265625 29.21875-52.265625 59.203124 0 4.710938-3.824218 8.535157-8.53125 8.535157zm51.199219-407.050781c-24.894531 7.433593-42.667969 30.515624-42.667969 57.183593v293.179688c10.605469-13.125 25.480469-22.75 42.667969-26.667969zm0 0"/><path d="m8.535156 196.265625c-4.710937 0-8.535156-3.820313-8.535156-8.53125v-52.394531c0-38.5625 28.886719-71.289063 67.199219-76.136719 2.449219-.332031 4.875.445313 6.707031 2.066406 1.835938 1.621094 2.894531 3.949219 2.894531 6.398438v52.394531c0 4.300781-3.199219 7.929688-7.46875 8.464844-29.796875 3.765625-52.265625 29.21875-52.265625 59.207031 0 4.710937-3.824218 8.53125-8.53125 8.53125zm51.199219-118.101563c-24.894531 7.433594-42.667969 30.515626-42.667969 57.183594v4.242188c10.605469-13.125 25.480469-22.75 42.667969-26.667969zm0 0"/><path d="m8.535156 333.398438c-4.710937 0-8.535156-3.824219-8.535156-8.535157v-52.394531c0-38.5625 28.886719-71.285156 67.199219-76.132812 2.457031-.324219 4.882812.441406 6.714843 2.0625 1.828126 1.613281 2.886719 3.953124 2.886719 6.402343v52.394531c0 4.300782-3.199219 7.925782-7.46875 8.464844-29.796875 3.761719-52.265625 29.21875-52.265625 59.203125 0 4.710938-3.824218 8.535157-8.53125 8.535157zm51.199219-118.109376c-24.894531 7.429688-42.667969 30.511719-42.667969 57.179688v4.242188c10.605469-13.125 25.480469-22.75 42.667969-26.667969zm0 0"/><path d="m187.734375 512c-2.21875 0-4.402344-.871094-6.035156-2.5l-19.566407-19.566406-19.566406 19.566406c-2.449218 2.441406-6.109375 3.15625-9.300781 1.851562-3.183594-1.324218-5.265625-4.4375-5.265625-7.886718v-85.332032c0-4.710937 3.824219-8.53125 8.535156-8.53125h51.199219c4.710937 0 8.53125 3.820313 8.53125 8.53125v85.332032c0 3.449218-2.082031 6.5625-5.265625 7.886718-1.054688.433594-2.164062.648438-3.265625.648438zm-25.601563-42.667969c2.183594 0 4.371094.835938 6.035157 2.5l11.03125 11.035157v-56.199219h-34.132813v56.199219l11.035156-11.035157c1.664063-1.664062 3.847657-2.5 6.03125-2.5zm0 0"/><path d="m409.601562 460.800781h-221.867187c-4.710937 0-8.535156-3.824219-8.535156-8.535156v-25.597656h-34.132813v25.597656c0 4.710937-3.824218 8.535156-8.53125 8.535156h-59.734375c-23.527343 0-42.667969-19.140625-42.667969-42.667969 0-23.527343 19.140626-42.667968 42.667969-42.667968h332.800781c4.707032 0 8.53125 3.824218 8.53125 8.535156v68.265625c0 4.710937-3.824218 8.535156-8.53125 8.535156zm-213.335937-17.066406h204.800781v-51.199219h-324.265625c-14.113281 0-25.601562 11.484375-25.601562 25.597656 0 14.113282 11.488281 25.601563 25.601562 25.601563h51.199219v-25.601563c0-4.710937 3.824219-8.53125 8.535156-8.53125h51.199219c4.710937 0 8.53125 3.820313 8.53125 8.53125zm0 0"/><path d="m409.601562 494.933594h-221.867187c-4.710937 0-8.535156-3.824219-8.535156-8.535156v-59.730469h-34.132813v59.730469c0 4.710937-3.824218 8.535156-8.53125 8.535156h-59.734375c-42.34375 0-76.800781-34.457032-76.800781-76.800782s34.457031-76.800781 76.800781-76.800781h332.800781c4.707032 0 8.53125 3.824219 8.53125 8.535157v136.53125c0 4.710937-3.824218 8.535156-8.53125 8.535156zm-213.335937-17.066406h204.800781v-119.46875h-324.265625c-32.9375 0-59.734375 26.796874-59.734375 59.734374s26.796875 59.734376 59.734375 59.734376h51.199219v-59.734376c0-4.710937 3.824219-8.53125 8.535156-8.53125h51.199219c4.710937 0 8.53125 3.820313 8.53125 8.53125zm0 0"/><path d="m324.265625 315.734375h-170.664063c-4.710937 0-8.535156-3.824219-8.535156-8.535156 0-18.824219-15.308594-34.132813-34.132812-34.132813-4.710938 0-8.535156-3.824218-8.535156-8.53125v-170.667968c0-4.710938 3.824218-8.535157 8.535156-8.535157 18.824218 0 34.132812-15.308593 34.132812-34.132812 0-4.710938 3.824219-8.53125 8.535156-8.53125h170.664063c4.710937 0 8.535156 3.820312 8.535156 8.53125 0 18.824219 15.308594 34.132812 34.132813 34.132812 4.710937 0 8.53125 3.824219 8.53125 8.535157v170.667968c0 4.707032-3.820313 8.53125-8.53125 8.53125-18.824219 0-34.132813 15.308594-34.132813 34.132813 0 4.710937-3.824219 8.535156-8.535156 8.535156zm-162.839844-17.066406h155.023438c3.601562-21.410157 20.550781-38.351563 41.960937-41.960938v-155.015625c-21.421875-3.609375-38.359375-20.546875-41.96875-41.957031h-155.015625c-3.601562 21.410156-20.550781 38.347656-41.960937 41.957031v155.027344c21.410156 3.597656 38.351562 20.539062 41.960937 41.949219zm0 0"/><path d="m227.738281 273.066406c-47.054687 0-85.335937-38.28125-85.335937-85.332031 0-47.054687 38.28125-85.335937 85.335937-85.335937.886719 0 1.765625.054687 2.636719.113281l1.058594.058593c3.4375.144532 6.457031 2.328126 7.644531 5.5625 1.195313 3.226563.339844 6.855469-2.175781 9.210938-11.410156 10.640625-17.699219 25.035156-17.699219 40.523438 0 30.582031 24.882813 55.464843 55.46875 55.464843 7.125 0 14.121094-1.371093 20.792969-4.070312 3.183594-1.296875 6.835937-.535157 9.269531 1.902343 2.421875 2.449219 3.140625 6.101563 1.816406 9.285157-13.285156 31.964843-44.226562 52.617187-78.8125 52.617187zm-15.617187-151.800781c-30.140625 7.085937-52.648438 34.195313-52.648438 66.46875 0 37.640625 30.625 68.265625 68.265625 68.265625 21.273438 0 40.824219-9.769531 53.546875-25.90625-2.195312.203125-4.402344.304688-6.613281.304688-39.996094 0-72.535156-32.535157-72.535156-72.53125 0-12.929688 3.523437-25.574219 9.984375-36.601563zm0 0"/><path d="m290.132812 182.734375-37.664062-37.667969 37.664062-37.664062 37.667969 37.664062zm-13.535156-37.667969 13.535156 13.535156 13.535157-13.535156-13.535157-13.535156zm0 0"/><path d="m290.132812 128c-4.710937 0-8.53125-3.824219-8.53125-8.535156v-17.066406c0-4.707032 3.820313-8.53125 8.53125-8.53125 4.710938 0 8.535157 3.824218 8.535157 8.53125v17.066406c0 4.710937-3.824219 8.535156-8.535157 8.535156zm0 0"/><path d="m332.800781 153.601562h-17.066406c-4.710937 0-8.535156-3.824218-8.535156-8.535156 0-4.710937 3.824219-8.53125 8.535156-8.53125h17.066406c4.710938 0 8.53125 3.820313 8.53125 8.53125 0 4.710938-3.820312 8.535156-8.53125 8.535156zm0 0"/><path d="m290.132812 196.265625c-4.710937 0-8.53125-3.820313-8.53125-8.53125v-17.066406c0-4.710938 3.820313-8.535157 8.53125-8.535157 4.710938 0 8.535157 3.824219 8.535157 8.535157v17.066406c0 4.710937-3.824219 8.53125-8.535157 8.53125zm0 0"/><path d="m264.535156 153.601562h-17.070312c-4.707032 0-8.53125-3.824218-8.53125-8.535156 0-4.710937 3.824218-8.53125 8.53125-8.53125h17.070312c4.707032 0 8.53125 3.820313 8.53125 8.53125 0 4.710938-3.824218 8.535156-8.53125 8.535156zm0 0"/></g></svg>